<svg width="512" height="512" viewBox="0 0 512 512" fill="none" xmlns="http://www.w3.org/2000/svg">
<rect width="512" height="512" rx="16" fill="url(#paint0_linear_3_14)"/>
<path d="M165.832 305.778L154.08 317.936C150.08 322.865 149.684 326.841 152.892 329.863C163.635 338.58 185.907 326.888 219.708 294.788L355.848 165.367C358.278 163.147 361.277 161.388 364.845 160.091C373.559 157.101 380.95 158.067 387.016 162.99C393.083 167.912 397.391 175.39 399.939 185.423C402.488 195.456 400.532 204.453 394.071 212.416C387.713 220.252 379.582 227.173 369.677 233.18C353.775 242.704 342.032 244.389 334.449 238.236C330.278 234.852 328.373 231 328.733 226.681L237.482 310.468C222.672 323.813 208.326 334.39 194.443 342.199C169.591 355.779 151.098 357.646 138.965 347.801C133.151 343.084 129.463 336.004 127.902 326.563C126.569 317.098 130.313 306.93 139.132 296.061C148.054 285.065 156.737 282.888 165.181 289.531C170.387 293.964 170.604 299.38 165.832 305.778ZM346.248 208.196C355.055 213.874 365.186 210.042 376.641 196.7C374.034 195.005 369.96 194.214 364.418 194.328C359.104 194.418 353.935 197.56 348.91 203.753C347.782 205.143 346.895 206.624 346.248 208.196Z" fill="white"/>
<defs>
<linearGradient id="paint0_linear_3_14" x1="168" y1="-20" x2="328" y2="512" gradientUnits="userSpaceOnUse">
<stop stop-color="#32357C"/>
<stop offset="0.429688" stop-color="#3826A5"/>
<stop offset="1" stop-color="#9D20FF"/>
</linearGradient>
</defs>
</svg>
